<svg xmlns="http://www.w3.org/2000/svg" viewBox="0 0 64 64" role="img" aria-labelledby="title desc">
  <title id="title">PokerNode linked cards logo</title>
  <desc id="desc">Two ivory playing cards with coral, gold, and cyan connected nodes on a deep indigo background</desc>
  <defs>
    <linearGradient id="brand-background" x1="8" y1="7" x2="56" y2="57" gradientUnits="userSpaceOnUse">
      <stop stop-color="#37346F"/>
      <stop offset="1" stop-color="#182A46"/>
    </linearGradient>
  </defs>
  <rect width="64" height="64" rx="18" fill="url(#brand-background)"/>
  <g fill="none" stroke="#F7F2E8" stroke-linecap="round" stroke-linejoin="round" stroke-width="3">
    <path d="M16.5 20.5 34 16.8a5 5 0 0 1 5.9 3.9l4 18.8a5 5 0 0 1-3.9 5.9l-17.5 3.8a5 5 0 0 1-5.9-3.9l-4-18.8a5 5 0 0 1 3.9-6Z"/>
    <path d="M29.5 15.2 47 19a5 5 0 0 1 3.9 5.9l-4 18.8a5 5 0 0 1-5.9 3.9"/>
  </g>
  <path d="m24 31 7-4 7 6" fill="none" stroke="#F4C95D" stroke-linecap="round" stroke-linejoin="round" stroke-width="3"/>
  <circle cx="24" cy="31" r="3" fill="#FF6B6B"/>
  <circle cx="31" cy="27" r="3" fill="#F4C95D"/>
  <circle cx="38" cy="33" r="3" fill="#67D5EA"/>
</svg>
