<svg xmlns="http://www.w3.org/2000/svg" viewBox="0 0 64 64" role="img" aria-labelledby="title desc">
  <title id="title">PokerNode linked cards logo — plum</title>
  <desc id="desc">Two cream playing cards with rose, apricot, and periwinkle connected nodes on a plum background</desc>
  <defs>
    <linearGradient id="plum-background" x1="8" y1="7" x2="56" y2="57" gradientUnits="userSpaceOnUse">
      <stop stop-color="#70405F"/>
      <stop offset="1" stop-color="#30284F"/>
    </linearGradient>
  </defs>
  <rect width="64" height="64" rx="18" fill="url(#plum-background)"/>
  <g fill="none" stroke="#FFF4E8" stroke-linecap="round" stroke-linejoin="round" stroke-width="3">
    <path d="M16.5 20.5 34 16.8a5 5 0 0 1 5.9 3.9l4 18.8a5 5 0 0 1-3.9 5.9l-17.5 3.8a5 5 0 0 1-5.9-3.9l-4-18.8a5 5 0 0 1 3.9-6Z"/>
    <path d="M29.5 15.2 47 19a5 5 0 0 1 3.9 5.9l-4 18.8a5 5 0 0 1-5.9 3.9"/>
  </g>
  <path d="m24 31 7-4 7 6" fill="none" stroke="#FFBE7A" stroke-linecap="round" stroke-linejoin="round" stroke-width="3"/>
  <circle cx="24" cy="31" r="3" fill="#FF719A"/>
  <circle cx="31" cy="27" r="3" fill="#FFBE7A"/>
  <circle cx="38" cy="33" r="3" fill="#A8B8FF"/>
</svg>
